<?xml version="1.0" encoding="UTF-8" standalone="no"?>
<!-- Created with Inkscape (http://www.inkscape.org/) -->

<svg
   width="400"
   height="400"
   viewBox="0 0 105.83333 105.83333"
   version="1.1"
   id="svg880"
   inkscape:version="1.2.2 (b0a8486541, 2022-12-01)"
   sodipodi:docname="LOGOTIPO-LEONEL-WEB.svg"
   xml:space="preserve"
   inkscape:export-filename="LOGOTIPO-LEONEL-WEB_BLANCO.png"
   inkscape:export-xdpi="96"
   inkscape:export-ydpi="96"
   xmlns:inkscape="http://www.inkscape.org/namespaces/inkscape"
   xmlns:sodipodi="http://sodipodi.sourceforge.net/DTD/sodipodi-0.dtd"
   xmlns:xlink="http://www.w3.org/1999/xlink"
   xmlns="http://www.w3.org/2000/svg"
   xmlns:svg="http://www.w3.org/2000/svg"><sodipodi:namedview
     id="namedview882"
     pagecolor="#ffffff"
     bordercolor="#000000"
     borderopacity="0.25"
     inkscape:showpageshadow="2"
     inkscape:pageopacity="0.0"
     inkscape:pagecheckerboard="0"
     inkscape:deskcolor="#d1d1d1"
     inkscape:document-units="mm"
     showgrid="true"
     inkscape:lockguides="true"
     showguides="true"
     inkscape:zoom="1.0757697"
     inkscape:cx="312.79929"
     inkscape:cy="285.37707"
     inkscape:window-width="1920"
     inkscape:window-height="1004"
     inkscape:window-x="0"
     inkscape:window-y="0"
     inkscape:window-maximized="1"
     inkscape:current-layer="layer4"><inkscape:grid
       originx="-5.1405637e-17"
       spacingx="1.0054166"
       spacingy="1.0054166"
       type="xygrid"
       id="grid884" /></sodipodi:namedview><defs
     id="defs877"><linearGradient
       id="linearGradient5131"
       inkscape:swatch="solid"><stop
         style="stop-color:#d45500;stop-opacity:1;"
         offset="0"
         id="stop5129" /></linearGradient><linearGradient
       id="linearGradient5002"
       inkscape:swatch="solid"><stop
         style="stop-color:#d45500;stop-opacity:1;"
         offset="0"
         id="stop5000" /></linearGradient><linearGradient
       inkscape:collect="always"
       id="linearGradient2168"><stop
         style="stop-color:#000000;stop-opacity:0;"
         offset="0"
         id="stop2166" /><stop
         style="stop-color:#000000;stop-opacity:1;"
         offset="1"
         id="stop2164" /></linearGradient><linearGradient
       inkscape:collect="always"
       id="linearGradient2156"><stop
         style="stop-color:#000000;stop-opacity:0;"
         offset="0"
         id="stop2154" /><stop
         style="stop-color:#000000;stop-opacity:1;"
         offset="1"
         id="stop2152" /></linearGradient><linearGradient
       inkscape:collect="always"
       id="linearGradient2146"><stop
         style="stop-color:#000000;stop-opacity:1;"
         offset="0"
         id="stop2142" /><stop
         style="stop-color:#000000;stop-opacity:0;"
         offset="1"
         id="stop2144" /></linearGradient><linearGradient
       inkscape:collect="always"
       id="linearGradient2122"><stop
         style="stop-color:#000000;stop-opacity:1;"
         offset="0"
         id="stop2118" /><stop
         style="stop-color:#000000;stop-opacity:0;"
         offset="1"
         id="stop2120" /></linearGradient><linearGradient
       inkscape:collect="always"
       xlink:href="#linearGradient2122"
       id="linearGradient2124"
       x1="-70.413462"
       y1="-53.90015"
       x2="-39.864002"
       y2="-53.90015"
       gradientUnits="userSpaceOnUse" /><linearGradient
       inkscape:collect="always"
       xlink:href="#linearGradient2146"
       id="linearGradient2140"
       x1="-94.462662"
       y1="-44.667606"
       x2="-32.973057"
       y2="-44.667606"
       gradientUnits="userSpaceOnUse" /><linearGradient
       inkscape:collect="always"
       xlink:href="#linearGradient2156"
       id="linearGradient2160"
       x1="5.2549663"
       y1="67.088554"
       x2="66.744568"
       y2="67.088554"
       gradientUnits="userSpaceOnUse" /><linearGradient
       inkscape:collect="always"
       xlink:href="#linearGradient2168"
       id="linearGradient2170"
       x1="31.289823"
       y1="61.924458"
       x2="61.839283"
       y2="61.924458"
       gradientUnits="userSpaceOnUse"
       gradientTransform="translate(0.11638761,0.0144375)" /><marker
       style="overflow:visible"
       id="marker5354-6"
       refX="0"
       refY="0"
       orient="auto-start-reverse"
       inkscape:stockid="Club"
       markerWidth="8.210042"
       markerHeight="7.5508885"
       viewBox="0 0 8.2100422 7.5508885"
       inkscape:isstock="true"
       inkscape:collect="always"
       preserveAspectRatio="xMidYMid"><path
         transform="scale(-0.5)"
         style="fill:context-stroke;fill-rule:evenodd;stroke:context-stroke"
         d="m -1.5971367,-7.0977635 c -1.8892507,0 -3.426382,1.5371314 -3.426382,3.4263822 0,0.6566798 0.2383531,1.2269257 0.5594092,1.7481542 -0.038751,0.032111 -0.079672,0.058463 -0.1165436,0.093235 -0.6224234,-0.8549928 -1.5893983,-1.4451409 -2.7271199,-1.4451409 -1.8892515,-1e-7 -3.426382,1.5371314 -3.426382,3.42638214 0,1.88925076 1.5371305,3.42638216 3.426382,3.42638216 0.9934462,0 1.868619,-0.4420611 2.4940326,-1.1188187 -0.124687,0.3548915 -0.2097783,0.7214874 -0.2097783,1.1188187 0,1.8892506 1.5371313,3.4263822 3.426382,3.4263822 1.88925064,0 3.4263821,-1.5371316 3.4263821,-3.4263822 0,-0.7933959 -0.3155586,-1.4938285 -0.7691878,-2.0744763 C 2.4152718,1.7663868 3.7718375,2.2973711 4.7661444,3.8340272 4.0279463,3.0958289 3.5540908,1.7534117 3.5540908,-0.05852936 l -0.6293354,-0.04661745 0.5827179,-0.0233087 c 0,-1.81194109 0.4505466,-3.15435829 1.188745,-3.89255659 -0.9590906,1.4822308 -2.2571634,2.0263625 -3.5662345,2.3075635 0.4041964,-0.5619092 0.6992616,-1.213407 0.6992616,-1.9579327 0,-1.8892506 -1.53713146,-3.4263822 -3.4263821,-3.4263822 z"
         id="path5352-2" /></marker><marker
       style="overflow:visible"
       id="marker5354-3-6"
       refX="0"
       refY="0"
       orient="auto-start-reverse"
       inkscape:stockid="Club"
       markerWidth="8.210042"
       markerHeight="7.5508885"
       viewBox="0 0 8.2100422 7.5508885"
       inkscape:isstock="true"
       inkscape:collect="always"
       preserveAspectRatio="xMidYMid"><path
         transform="scale(-0.5)"
         style="fill:context-stroke;fill-rule:evenodd;stroke:context-stroke"
         d="m -1.5971367,-7.0977635 c -1.8892507,0 -3.426382,1.5371314 -3.426382,3.4263822 0,0.6566798 0.2383531,1.2269257 0.5594092,1.7481542 -0.038751,0.032111 -0.079672,0.058463 -0.1165436,0.093235 -0.6224234,-0.8549928 -1.5893983,-1.4451409 -2.7271199,-1.4451409 -1.8892515,-1e-7 -3.426382,1.5371314 -3.426382,3.42638214 0,1.88925076 1.5371305,3.42638216 3.426382,3.42638216 0.9934462,0 1.868619,-0.4420611 2.4940326,-1.1188187 -0.124687,0.3548915 -0.2097783,0.7214874 -0.2097783,1.1188187 0,1.8892506 1.5371313,3.4263822 3.426382,3.4263822 1.88925064,0 3.4263821,-1.5371316 3.4263821,-3.4263822 0,-0.7933959 -0.3155586,-1.4938285 -0.7691878,-2.0744763 C 2.4152718,1.7663868 3.7718375,2.2973711 4.7661444,3.8340272 4.0279463,3.0958289 3.5540908,1.7534117 3.5540908,-0.05852936 l -0.6293354,-0.04661745 0.5827179,-0.0233087 c 0,-1.81194109 0.4505466,-3.15435829 1.188745,-3.89255659 -0.9590906,1.4822308 -2.2571634,2.0263625 -3.5662345,2.3075635 0.4041964,-0.5619092 0.6992616,-1.213407 0.6992616,-1.9579327 0,-1.8892506 -1.53713146,-3.4263822 -3.4263821,-3.4263822 z"
         id="path5352-6-1" /></marker><marker
       style="overflow:visible"
       id="marker5354-6-7"
       refX="0"
       refY="0"
       orient="auto-start-reverse"
       inkscape:stockid="Club"
       markerWidth="8.210042"
       markerHeight="7.5508885"
       viewBox="0 0 8.2100422 7.5508885"
       inkscape:isstock="true"
       inkscape:collect="always"
       preserveAspectRatio="xMidYMid"><path
         transform="scale(-0.5)"
         style="fill:context-stroke;fill-rule:evenodd;stroke:context-stroke"
         d="m -1.5971367,-7.0977635 c -1.8892507,0 -3.426382,1.5371314 -3.426382,3.4263822 0,0.6566798 0.2383531,1.2269257 0.5594092,1.7481542 -0.038751,0.032111 -0.079672,0.058463 -0.1165436,0.093235 -0.6224234,-0.8549928 -1.5893983,-1.4451409 -2.7271199,-1.4451409 -1.8892515,-1e-7 -3.426382,1.5371314 -3.426382,3.42638214 0,1.88925076 1.5371305,3.42638216 3.426382,3.42638216 0.9934462,0 1.868619,-0.4420611 2.4940326,-1.1188187 -0.124687,0.3548915 -0.2097783,0.7214874 -0.2097783,1.1188187 0,1.8892506 1.5371313,3.4263822 3.426382,3.4263822 1.88925064,0 3.4263821,-1.5371316 3.4263821,-3.4263822 0,-0.7933959 -0.3155586,-1.4938285 -0.7691878,-2.0744763 C 2.4152718,1.7663868 3.7718375,2.2973711 4.7661444,3.8340272 4.0279463,3.0958289 3.5540908,1.7534117 3.5540908,-0.05852936 l -0.6293354,-0.04661745 0.5827179,-0.0233087 c 0,-1.81194109 0.4505466,-3.15435829 1.188745,-3.89255659 -0.9590906,1.4822308 -2.2571634,2.0263625 -3.5662345,2.3075635 0.4041964,-0.5619092 0.6992616,-1.213407 0.6992616,-1.9579327 0,-1.8892506 -1.53713146,-3.4263822 -3.4263821,-3.4263822 z"
         id="path5352-2-5" /></marker><marker
       style="overflow:visible"
       id="marker5354-3-6-9"
       refX="0"
       refY="0"
       orient="auto-start-reverse"
       inkscape:stockid="Club"
       markerWidth="8.210042"
       markerHeight="7.5508885"
       viewBox="0 0 8.2100422 7.5508885"
       inkscape:isstock="true"
       inkscape:collect="always"
       preserveAspectRatio="xMidYMid"><path
         transform="scale(-0.5)"
         style="fill:context-stroke;fill-rule:evenodd;stroke:context-stroke"
         d="m -1.5971367,-7.0977635 c -1.8892507,0 -3.426382,1.5371314 -3.426382,3.4263822 0,0.6566798 0.2383531,1.2269257 0.5594092,1.7481542 -0.038751,0.032111 -0.079672,0.058463 -0.1165436,0.093235 -0.6224234,-0.8549928 -1.5893983,-1.4451409 -2.7271199,-1.4451409 -1.8892515,-1e-7 -3.426382,1.5371314 -3.426382,3.42638214 0,1.88925076 1.5371305,3.42638216 3.426382,3.42638216 0.9934462,0 1.868619,-0.4420611 2.4940326,-1.1188187 -0.124687,0.3548915 -0.2097783,0.7214874 -0.2097783,1.1188187 0,1.8892506 1.5371313,3.4263822 3.426382,3.4263822 1.88925064,0 3.4263821,-1.5371316 3.4263821,-3.4263822 0,-0.7933959 -0.3155586,-1.4938285 -0.7691878,-2.0744763 C 2.4152718,1.7663868 3.7718375,2.2973711 4.7661444,3.8340272 4.0279463,3.0958289 3.5540908,1.7534117 3.5540908,-0.05852936 l -0.6293354,-0.04661745 0.5827179,-0.0233087 c 0,-1.81194109 0.4505466,-3.15435829 1.188745,-3.89255659 -0.9590906,1.4822308 -2.2571634,2.0263625 -3.5662345,2.3075635 0.4041964,-0.5619092 0.6992616,-1.213407 0.6992616,-1.9579327 0,-1.8892506 -1.53713146,-3.4263822 -3.4263821,-3.4263822 z"
         id="path5352-6-1-2" /></marker><marker
       style="overflow:visible"
       id="marker5354-3-6-9-3"
       refX="0"
       refY="0"
       orient="auto-start-reverse"
       inkscape:stockid="Club"
       markerWidth="8.210042"
       markerHeight="7.5508885"
       viewBox="0 0 8.2100422 7.5508885"
       inkscape:isstock="true"
       inkscape:collect="always"
       preserveAspectRatio="xMidYMid"><path
         transform="scale(-0.5)"
         style="fill:context-stroke;fill-rule:evenodd;stroke:context-stroke"
         d="m -1.5971367,-7.0977635 c -1.8892507,0 -3.426382,1.5371314 -3.426382,3.4263822 0,0.6566798 0.2383531,1.2269257 0.5594092,1.7481542 -0.038751,0.032111 -0.079672,0.058463 -0.1165436,0.093235 -0.6224234,-0.8549928 -1.5893983,-1.4451409 -2.7271199,-1.4451409 -1.8892515,-1e-7 -3.426382,1.5371314 -3.426382,3.42638214 0,1.88925076 1.5371305,3.42638216 3.426382,3.42638216 0.9934462,0 1.868619,-0.4420611 2.4940326,-1.1188187 -0.124687,0.3548915 -0.2097783,0.7214874 -0.2097783,1.1188187 0,1.8892506 1.5371313,3.4263822 3.426382,3.4263822 1.88925064,0 3.4263821,-1.5371316 3.4263821,-3.4263822 0,-0.7933959 -0.3155586,-1.4938285 -0.7691878,-2.0744763 C 2.4152718,1.7663868 3.7718375,2.2973711 4.7661444,3.8340272 4.0279463,3.0958289 3.5540908,1.7534117 3.5540908,-0.05852936 l -0.6293354,-0.04661745 0.5827179,-0.0233087 c 0,-1.81194109 0.4505466,-3.15435829 1.188745,-3.89255659 -0.9590906,1.4822308 -2.2571634,2.0263625 -3.5662345,2.3075635 0.4041964,-0.5619092 0.6992616,-1.213407 0.6992616,-1.9579327 0,-1.8892506 -1.53713146,-3.4263822 -3.4263821,-3.4263822 z"
         id="path5352-6-1-2-6" /></marker><marker
       style="overflow:visible"
       id="marker5354-3-6-6"
       refX="0"
       refY="0"
       orient="auto-start-reverse"
       inkscape:stockid="Club"
       markerWidth="8.210042"
       markerHeight="7.5508885"
       viewBox="0 0 8.2100422 7.5508885"
       inkscape:isstock="true"
       inkscape:collect="always"
       preserveAspectRatio="xMidYMid"><path
         transform="scale(-0.5)"
         style="fill:context-stroke;fill-rule:evenodd;stroke:context-stroke"
         d="m -1.5971367,-7.0977635 c -1.8892507,0 -3.426382,1.5371314 -3.426382,3.4263822 0,0.6566798 0.2383531,1.2269257 0.5594092,1.7481542 -0.038751,0.032111 -0.079672,0.058463 -0.1165436,0.093235 -0.6224234,-0.8549928 -1.5893983,-1.4451409 -2.7271199,-1.4451409 -1.8892515,-1e-7 -3.426382,1.5371314 -3.426382,3.42638214 0,1.88925076 1.5371305,3.42638216 3.426382,3.42638216 0.9934462,0 1.868619,-0.4420611 2.4940326,-1.1188187 -0.124687,0.3548915 -0.2097783,0.7214874 -0.2097783,1.1188187 0,1.8892506 1.5371313,3.4263822 3.426382,3.4263822 1.88925064,0 3.4263821,-1.5371316 3.4263821,-3.4263822 0,-0.7933959 -0.3155586,-1.4938285 -0.7691878,-2.0744763 C 2.4152718,1.7663868 3.7718375,2.2973711 4.7661444,3.8340272 4.0279463,3.0958289 3.5540908,1.7534117 3.5540908,-0.05852936 l -0.6293354,-0.04661745 0.5827179,-0.0233087 c 0,-1.81194109 0.4505466,-3.15435829 1.188745,-3.89255659 -0.9590906,1.4822308 -2.2571634,2.0263625 -3.5662345,2.3075635 0.4041964,-0.5619092 0.6992616,-1.213407 0.6992616,-1.9579327 0,-1.8892506 -1.53713146,-3.4263822 -3.4263821,-3.4263822 z"
         id="path5352-6-1-1" /></marker><marker
       style="overflow:visible"
       id="marker5354-3-63"
       refX="0"
       refY="0"
       orient="auto-start-reverse"
       inkscape:stockid="Club"
       markerWidth="8.210042"
       markerHeight="7.5508885"
       viewBox="0 0 8.2100422 7.5508885"
       inkscape:isstock="true"
       inkscape:collect="always"
       preserveAspectRatio="xMidYMid"><path
         transform="scale(-0.5)"
         style="fill:context-stroke;fill-rule:evenodd;stroke:context-stroke"
         d="m -1.5971367,-7.0977635 c -1.8892507,0 -3.426382,1.5371314 -3.426382,3.4263822 0,0.6566798 0.2383531,1.2269257 0.5594092,1.7481542 -0.038751,0.032111 -0.079672,0.058463 -0.1165436,0.093235 -0.6224234,-0.8549928 -1.5893983,-1.4451409 -2.7271199,-1.4451409 -1.8892515,-1e-7 -3.426382,1.5371314 -3.426382,3.42638214 0,1.88925076 1.5371305,3.42638216 3.426382,3.42638216 0.9934462,0 1.868619,-0.4420611 2.4940326,-1.1188187 -0.124687,0.3548915 -0.2097783,0.7214874 -0.2097783,1.1188187 0,1.8892506 1.5371313,3.4263822 3.426382,3.4263822 1.88925064,0 3.4263821,-1.5371316 3.4263821,-3.4263822 0,-0.7933959 -0.3155586,-1.4938285 -0.7691878,-2.0744763 C 2.4152718,1.7663868 3.7718375,2.2973711 4.7661444,3.8340272 4.0279463,3.0958289 3.5540908,1.7534117 3.5540908,-0.05852936 l -0.6293354,-0.04661745 0.5827179,-0.0233087 c 0,-1.81194109 0.4505466,-3.15435829 1.188745,-3.89255659 -0.9590906,1.4822308 -2.2571634,2.0263625 -3.5662345,2.3075635 0.4041964,-0.5619092 0.6992616,-1.213407 0.6992616,-1.9579327 0,-1.8892506 -1.53713146,-3.4263822 -3.4263821,-3.4263822 z"
         id="path5352-6-2" /></marker><marker
       style="overflow:visible"
       id="marker5354-6-3"
       refX="0"
       refY="0"
       orient="auto-start-reverse"
       inkscape:stockid="Club"
       markerWidth="8.210042"
       markerHeight="7.5508885"
       viewBox="0 0 8.2100422 7.5508885"
       inkscape:isstock="true"
       inkscape:collect="always"
       preserveAspectRatio="xMidYMid"><path
         transform="scale(-0.5)"
         style="fill:context-stroke;fill-rule:evenodd;stroke:context-stroke"
         d="m -1.5971367,-7.0977635 c -1.8892507,0 -3.426382,1.5371314 -3.426382,3.4263822 0,0.6566798 0.2383531,1.2269257 0.5594092,1.7481542 -0.038751,0.032111 -0.079672,0.058463 -0.1165436,0.093235 -0.6224234,-0.8549928 -1.5893983,-1.4451409 -2.7271199,-1.4451409 -1.8892515,-1e-7 -3.426382,1.5371314 -3.426382,3.42638214 0,1.88925076 1.5371305,3.42638216 3.426382,3.42638216 0.9934462,0 1.868619,-0.4420611 2.4940326,-1.1188187 -0.124687,0.3548915 -0.2097783,0.7214874 -0.2097783,1.1188187 0,1.8892506 1.5371313,3.4263822 3.426382,3.4263822 1.88925064,0 3.4263821,-1.5371316 3.4263821,-3.4263822 0,-0.7933959 -0.3155586,-1.4938285 -0.7691878,-2.0744763 C 2.4152718,1.7663868 3.7718375,2.2973711 4.7661444,3.8340272 4.0279463,3.0958289 3.5540908,1.7534117 3.5540908,-0.05852936 l -0.6293354,-0.04661745 0.5827179,-0.0233087 c 0,-1.81194109 0.4505466,-3.15435829 1.188745,-3.89255659 -0.9590906,1.4822308 -2.2571634,2.0263625 -3.5662345,2.3075635 0.4041964,-0.5619092 0.6992616,-1.213407 0.6992616,-1.9579327 0,-1.8892506 -1.53713146,-3.4263822 -3.4263821,-3.4263822 z"
         id="path5352-2-6" /></marker><marker
       style="overflow:visible"
       id="marker5354-6-3-5"
       refX="0"
       refY="0"
       orient="auto-start-reverse"
       inkscape:stockid="Club"
       markerWidth="8.210042"
       markerHeight="7.5508885"
       viewBox="0 0 8.2100422 7.5508885"
       inkscape:isstock="true"
       inkscape:collect="always"
       preserveAspectRatio="xMidYMid"><path
         transform="scale(-0.5)"
         style="fill:context-stroke;fill-rule:evenodd;stroke:context-stroke"
         d="m -1.5971367,-7.0977635 c -1.8892507,0 -3.426382,1.5371314 -3.426382,3.4263822 0,0.6566798 0.2383531,1.2269257 0.5594092,1.7481542 -0.038751,0.032111 -0.079672,0.058463 -0.1165436,0.093235 -0.6224234,-0.8549928 -1.5893983,-1.4451409 -2.7271199,-1.4451409 -1.8892515,-1e-7 -3.426382,1.5371314 -3.426382,3.42638214 0,1.88925076 1.5371305,3.42638216 3.426382,3.42638216 0.9934462,0 1.868619,-0.4420611 2.4940326,-1.1188187 -0.124687,0.3548915 -0.2097783,0.7214874 -0.2097783,1.1188187 0,1.8892506 1.5371313,3.4263822 3.426382,3.4263822 1.88925064,0 3.4263821,-1.5371316 3.4263821,-3.4263822 0,-0.7933959 -0.3155586,-1.4938285 -0.7691878,-2.0744763 C 2.4152718,1.7663868 3.7718375,2.2973711 4.7661444,3.8340272 4.0279463,3.0958289 3.5540908,1.7534117 3.5540908,-0.05852936 l -0.6293354,-0.04661745 0.5827179,-0.0233087 c 0,-1.81194109 0.4505466,-3.15435829 1.188745,-3.89255659 -0.9590906,1.4822308 -2.2571634,2.0263625 -3.5662345,2.3075635 0.4041964,-0.5619092 0.6992616,-1.213407 0.6992616,-1.9579327 0,-1.8892506 -1.53713146,-3.4263822 -3.4263821,-3.4263822 z"
         id="path5352-2-6-3" /></marker><marker
       style="overflow:visible"
       id="marker5354-6-3-6"
       refX="0"
       refY="0"
       orient="auto-start-reverse"
       inkscape:stockid="Club"
       markerWidth="8.210042"
       markerHeight="7.5508885"
       viewBox="0 0 8.2100422 7.5508885"
       inkscape:isstock="true"
       inkscape:collect="always"
       preserveAspectRatio="xMidYMid"><path
         transform="scale(-0.5)"
         style="fill:context-stroke;fill-rule:evenodd;stroke:context-stroke"
         d="m -1.5971367,-7.0977635 c -1.8892507,0 -3.426382,1.5371314 -3.426382,3.4263822 0,0.6566798 0.2383531,1.2269257 0.5594092,1.7481542 -0.038751,0.032111 -0.079672,0.058463 -0.1165436,0.093235 -0.6224234,-0.8549928 -1.5893983,-1.4451409 -2.7271199,-1.4451409 -1.8892515,-1e-7 -3.426382,1.5371314 -3.426382,3.42638214 0,1.88925076 1.5371305,3.42638216 3.426382,3.42638216 0.9934462,0 1.868619,-0.4420611 2.4940326,-1.1188187 -0.124687,0.3548915 -0.2097783,0.7214874 -0.2097783,1.1188187 0,1.8892506 1.5371313,3.4263822 3.426382,3.4263822 1.88925064,0 3.4263821,-1.5371316 3.4263821,-3.4263822 0,-0.7933959 -0.3155586,-1.4938285 -0.7691878,-2.0744763 C 2.4152718,1.7663868 3.7718375,2.2973711 4.7661444,3.8340272 4.0279463,3.0958289 3.5540908,1.7534117 3.5540908,-0.05852936 l -0.6293354,-0.04661745 0.5827179,-0.0233087 c 0,-1.81194109 0.4505466,-3.15435829 1.188745,-3.89255659 -0.9590906,1.4822308 -2.2571634,2.0263625 -3.5662345,2.3075635 0.4041964,-0.5619092 0.6992616,-1.213407 0.6992616,-1.9579327 0,-1.8892506 -1.53713146,-3.4263822 -3.4263821,-3.4263822 z"
         id="path5352-2-6-2" /></marker></defs><g
     inkscape:label="Capa 1"
     inkscape:groupmode="layer"
     id="layer1" /><g
     inkscape:groupmode="layer"
     id="layer3"
     inkscape:label="Capa 2"
     transform="matrix(1.1786512,0,0,1.26011,-5.9931938,-17.502498)"><path
       id="path1086"
       style="fill:#f9f9f9;stroke:url(#linearGradient2160);stroke-width:0.638688"
       d="M 5.5745241,36.559279 A 61.170258,60.738968 0 0 0 23.490815,79.508488 61.170258,60.738968 0 0 0 66.266484,97.28732 c 0.0051,-0.0187 0.01496,-0.03894 0.03069,-0.06028 0.04233,-0.05742 0.07753,-0.119178 0.113117,-0.180442 0.01004,-0.0169 0.01973,-0.03397 0.02894,-0.05126 z M 66.572952,97.128203 c -1.59e-4,2.67e-4 -2.79e-4,5.53e-4 -4.39e-4,8.2e-4 -0.0321,0.05513 -0.0641,0.110398 -0.100402,0.163218 a 61.170258,60.738968 0 0 0 0.27227,0.0062 z" /><path
       id="path1086-9"
       style="fill:#f9f9f9;stroke:url(#linearGradient2140);stroke-width:0.638688;stroke-opacity:1"
       transform="scale(-1)"
       d="m -32.972892,-14.45764 -61.170295,-60.739113 a 61.170258,60.738968 0 0 0 0,0.0406 c 0.04812,-0.0098 0.09063,0.03822 0.05261,0.111136 -0.01595,0.0306 -0.02472,0.0622 -0.02981,0.09596 0,1.35e-4 0.0031,0.01885 0.0048,0.02092 0.01417,0.02116 0.04241,0.03272 0.06489,0.04347 0.06871,0.02138 0.140851,0.02969 0.212204,0.04019 h 4.38e-4 c 0.115573,0.01701 0.112504,0.116924 0.01578,0.122619 -0.01,5.88e-4 -0.0209,-2.4e-5 -0.03288,-0.0016 -0.07936,-0.01071 -0.158913,-0.02234 -0.235441,-0.04511 -0.0175,-0.0068 -0.03489,-0.01441 -0.0513,-0.02338 a 61.170258,60.738968 0 0 0 17.914975,42.544036 61.170258,60.738968 0 0 0 43.254005,17.790314 z" /><path
       style="fill:#e6e6e6;stroke:url(#linearGradient2170);stroke-width:0.317226;stroke-opacity:1"
       id="path1086-7"
       sodipodi:type="arc"
       sodipodi:cx="61.955669"
       sodipodi:cy="46.771301"
       sodipodi:rx="30.390802"
       sodipodi:ry="30.176525"
       sodipodi:start="1.5707963"
       sodipodi:end="3.1415927"
       sodipodi:arc-type="arc"
       d="M 61.955669,76.947826 A 30.390802,30.176525 0 0 1 40.466127,68.109327 30.390802,30.176525 0 0 1 31.564867,46.771301"
       sodipodi:open="true" /><path
       style="fill:#b3b3b3;stroke:url(#linearGradient2124);stroke-width:0.317315;stroke-opacity:1"
       id="path1086-7-0"
       sodipodi:type="arc"
       sodipodi:cx="-39.864002"
       sodipodi:cy="-69.067741"
       sodipodi:rx="30.390802"
       sodipodi:ry="30.176525"
       sodipodi:start="1.5707963"
       sodipodi:end="3.1415927"
       sodipodi:arc-type="arc"
       d="m -39.864002,-38.891216 a 30.390802,30.176525 0 0 1 -21.489543,-8.8385 30.390802,30.176525 0 0 1 -8.90126,-21.338025"
       sodipodi:open="true"
       transform="scale(-1)" /></g><g
     inkscape:groupmode="layer"
     id="layer4"
     inkscape:label="Capa 3"><rect
       style="mix-blend-mode:multiply;fill:#00ff00;fill-opacity:0.677504;stroke:none;stroke-width:0.115919;stroke-dasharray:none;stroke-opacity:1;marker-mid:url(#marker5354-3-63);paint-order:fill markers stroke"
       id="rect2464-0-0"
       width="2.8020735"
       height="2.7979109"
       x="14.429697"
       y="6.5766597"
       transform="rotate(30)" /><rect
       style="mix-blend-mode:multiply;fill:#00ff00;fill-opacity:0.50364184;stroke:none;stroke-width:0.115919;stroke-dasharray:none;stroke-opacity:1;marker-mid:url(#marker5354-6);paint-order:fill markers stroke"
       id="rect2464-8"
       width="2.8020735"
       height="2.7979109"
       x="14.98858"
       y="5.2752728"
       transform="rotate(15)" /><rect
       style="mix-blend-mode:multiply;fill:#00ff00;fill-opacity:0.63017315;stroke:none;stroke-width:0.115919;stroke-dasharray:none;stroke-opacity:1;marker-mid:url(#marker5354-6-3);paint-order:fill markers stroke"
       id="rect2464-8-7"
       width="2.8020735"
       height="2.7979109"
       x="21.724913"
       y="1.678799"
       transform="rotate(15)" /><rect
       style="mix-blend-mode:multiply;fill:#00ff00;fill-opacity:0.58407754;stroke:none;stroke-width:0.115919;stroke-dasharray:none;stroke-opacity:1;marker-mid:url(#marker5354-6-3-5);paint-order:fill markers stroke"
       id="rect2464-8-7-5"
       width="2.8020735"
       height="2.7979109"
       x="15.336788"
       y="0.28069958"
       transform="rotate(15)" /><rect
       style="mix-blend-mode:multiply;fill:#00ff00;fill-opacity:0.4494828;stroke:none;stroke-width:0.115919;stroke-dasharray:none;stroke-opacity:1;marker-mid:url(#marker5354-6-3-6);paint-order:fill markers stroke"
       id="rect2464-8-7-9"
       width="2.8020735"
       height="2.7979109"
       x="9.6271181"
       y="-0.56726342"
       transform="rotate(15)" /><rect
       style="mix-blend-mode:multiply;fill:#00ff00;fill-opacity:1;stroke:none;stroke-width:0.115919;stroke-dasharray:none;stroke-opacity:1;marker-mid:url(#marker5354-3-6);paint-order:fill markers stroke"
       id="rect2464-0-7"
       width="2.8020735"
       height="2.7979109"
       x="20.332546"
       y="6.8319588"
       transform="rotate(30)" /><rect
       style="mix-blend-mode:multiply;fill:#00ff00;fill-opacity:1;stroke:none;stroke-width:0.115919;stroke-dasharray:none;stroke-opacity:1;marker-mid:url(#marker5354-3-6-6);paint-order:fill markers stroke"
       id="rect2464-0-7-0"
       width="2.8020735"
       height="2.7979109"
       x="18.239183"
       y="13.015039"
       transform="rotate(30)" /><rect
       style="mix-blend-mode:multiply;fill:#00ff00;fill-opacity:0.45085153;stroke:none;stroke-width:0.115919;stroke-dasharray:none;stroke-opacity:1;marker-mid:url(#marker5354-6-7);paint-order:fill markers stroke"
       id="rect2464-8-9"
       width="2.8020735"
       height="2.7979109"
       x="7.3823628"
       y="7.176775" /><rect
       style="mix-blend-mode:multiply;fill:#00ff00;fill-opacity:1;stroke:none;stroke-width:0.115919;stroke-dasharray:none;stroke-opacity:1;marker-mid:url(#marker5354-3-6-9);paint-order:fill markers stroke"
       id="rect2464-0-7-7"
       width="2.8020735"
       height="2.7979109"
       x="21.192488"
       y="7.46876"
       transform="rotate(15)" /><rect
       style="mix-blend-mode:multiply;fill:#00ff00;fill-opacity:1;stroke:none;stroke-width:0.115919;stroke-dasharray:none;stroke-opacity:1;marker-mid:url(#marker5354-3-6-9-3);paint-order:fill markers stroke"
       id="rect2464-0-7-7-4"
       width="2.8020735"
       height="2.7979109"
       x="27.132441"
       y="-3.8946829"
       transform="rotate(30)" /></g></svg>
