<?xml version="1.0" encoding="UTF-8" standalone="no"?>
<!-- Created with Inkscape (http://www.inkscape.org/) -->

<svg
   width="400"
   height="400"
   viewBox="0 0 105.83333 105.83333"
   version="1.1"
   id="svg880"
   inkscape:version="1.3.1 (9b9bdc1480, 2023-11-25, custom)"
   sodipodi:docname="LOGOTIPO-LEONEL-WEB.svg"
   xml:space="preserve"
   inkscape:export-filename="LOGOTIPO-LEONEL-WEB_BLANCO.png"
   inkscape:export-xdpi="96"
   inkscape:export-ydpi="96"
   xmlns:inkscape="http://www.inkscape.org/namespaces/inkscape"
   xmlns:sodipodi="http://sodipodi.sourceforge.net/DTD/sodipodi-0.dtd"
   xmlns:xlink="http://www.w3.org/1999/xlink"
   xmlns="http://www.w3.org/2000/svg"
   xmlns:svg="http://www.w3.org/2000/svg"><sodipodi:namedview
     id="namedview882"
     pagecolor="#ffffff"
     bordercolor="#000000"
     borderopacity="0.25"
     inkscape:showpageshadow="2"
     inkscape:pageopacity="0.0"
     inkscape:pagecheckerboard="0"
     inkscape:deskcolor="#d1d1d1"
     inkscape:document-units="mm"
     showgrid="true"
     inkscape:lockguides="true"
     showguides="true"
     inkscape:zoom="1.5213681"
     inkscape:cx="265.87911"
     inkscape:cy="203.10666"
     inkscape:window-width="1920"
     inkscape:window-height="1011"
     inkscape:window-x="0"
     inkscape:window-y="0"
     inkscape:window-maximized="1"
     inkscape:current-layer="layer3"><inkscape:grid
       originx="-5.1405637e-17"
       spacingx="1.0054166"
       spacingy="1.0054166"
       type="xygrid"
       id="grid884"
       originy="0"
       units="mm"
       visible="true" /></sodipodi:namedview><defs
     id="defs877"><linearGradient
       id="linearGradient5131"
       inkscape:swatch="solid"><stop
         style="stop-color:#d45500;stop-opacity:1;"
         offset="0"
         id="stop5129" /></linearGradient><linearGradient
       id="linearGradient5002"
       inkscape:swatch="solid"><stop
         style="stop-color:#d45500;stop-opacity:1;"
         offset="0"
         id="stop5000" /></linearGradient><linearGradient
       inkscape:collect="always"
       id="linearGradient2168"><stop
         style="stop-color:#000000;stop-opacity:0;"
         offset="0"
         id="stop2166" /><stop
         style="stop-color:#000000;stop-opacity:1;"
         offset="1"
         id="stop2164" /></linearGradient><linearGradient
       inkscape:collect="always"
       id="linearGradient2156"><stop
         style="stop-color:#000000;stop-opacity:0;"
         offset="0"
         id="stop2154" /><stop
         style="stop-color:#000000;stop-opacity:1;"
         offset="1"
         id="stop2152" /></linearGradient><linearGradient
       inkscape:collect="always"
       id="linearGradient2146"><stop
         style="stop-color:#000000;stop-opacity:1;"
         offset="0"
         id="stop2142" /><stop
         style="stop-color:#000000;stop-opacity:0;"
         offset="1"
         id="stop2144" /></linearGradient><linearGradient
       inkscape:collect="always"
       id="linearGradient2122"><stop
         style="stop-color:#000000;stop-opacity:1;"
         offset="0"
         id="stop2118" /><stop
         style="stop-color:#000000;stop-opacity:0;"
         offset="1"
         id="stop2120" /></linearGradient><linearGradient
       inkscape:collect="always"
       xlink:href="#linearGradient2122"
       id="linearGradient2124"
       x1="-70.413462"
       y1="-53.90015"
       x2="-39.864002"
       y2="-53.90015"
       gradientUnits="userSpaceOnUse" /><linearGradient
       inkscape:collect="always"
       xlink:href="#linearGradient2146"
       id="linearGradient2140"
       x1="-94.462662"
       y1="-44.667606"
       x2="-32.973057"
       y2="-44.667606"
       gradientUnits="userSpaceOnUse" /><linearGradient
       inkscape:collect="always"
       xlink:href="#linearGradient2156"
       id="linearGradient2160"
       x1="5.2549663"
       y1="67.088554"
       x2="66.744568"
       y2="67.088554"
       gradientUnits="userSpaceOnUse" /><linearGradient
       inkscape:collect="always"
       xlink:href="#linearGradient2168"
       id="linearGradient2170"
       x1="31.289823"
       y1="61.924458"
       x2="61.839283"
       y2="61.924458"
       gradientUnits="userSpaceOnUse"
       gradientTransform="translate(0.11638761,0.0144375)" /></defs><g
     inkscape:label="Capa 1"
     inkscape:groupmode="layer"
     id="layer1" /><g
     inkscape:groupmode="layer"
     id="layer3"
     inkscape:label="Capa 2"
     transform="matrix(1.1786512,0,0,1.26011,-5.9931938,-17.502498)"><path
       id="path1086"
       style="fill:#ffcc00;stroke:url(#linearGradient2160);stroke-width:0.638688"
       d="M 5.5745241,36.559279 A 61.170258,60.738968 0 0 0 23.490815,79.508488 61.170258,60.738968 0 0 0 66.266484,97.28732 c 0.0051,-0.0187 0.01496,-0.03894 0.03069,-0.06028 0.04233,-0.05742 0.07753,-0.119178 0.113117,-0.180442 0.01004,-0.0169 0.01973,-0.03397 0.02894,-0.05126 z M 66.572952,97.128203 c -1.59e-4,2.67e-4 -2.79e-4,5.53e-4 -4.39e-4,8.2e-4 -0.0321,0.05513 -0.0641,0.110398 -0.100402,0.163218 a 61.170258,60.738968 0 0 0 0.27227,0.0062 z" /><path
       id="path1086-9"
       style="fill:#ffcc00;stroke:url(#linearGradient2140);stroke-width:0.638688;stroke-opacity:1"
       transform="scale(-1)"
       d="m -32.972892,-14.45764 -61.170295,-60.739113 a 61.170258,60.738968 0 0 0 0,0.0406 c 0.04812,-0.0098 0.09063,0.03822 0.05261,0.111136 -0.01595,0.0306 -0.02472,0.0622 -0.02981,0.09596 0,1.35e-4 0.0031,0.01885 0.0048,0.02092 0.01417,0.02116 0.04241,0.03272 0.06489,0.04347 0.06871,0.02138 0.140851,0.02969 0.212204,0.04019 h 4.38e-4 c 0.115573,0.01701 0.112504,0.116924 0.01578,0.122619 -0.01,5.88e-4 -0.0209,-2.4e-5 -0.03288,-0.0016 -0.07936,-0.01071 -0.158913,-0.02234 -0.235441,-0.04511 -0.0175,-0.0068 -0.03489,-0.01441 -0.0513,-0.02338 a 61.170258,60.738968 0 0 0 17.914975,42.544036 61.170258,60.738968 0 0 0 43.254005,17.790314 z" /><path
       style="fill:#ffcc00;stroke:url(#linearGradient2170);stroke-width:0.317226;stroke-opacity:1"
       id="path1086-7"
       sodipodi:type="arc"
       sodipodi:cx="61.955669"
       sodipodi:cy="46.771301"
       sodipodi:rx="30.390802"
       sodipodi:ry="30.176525"
       sodipodi:start="1.5707963"
       sodipodi:end="3.1415927"
       sodipodi:arc-type="arc"
       d="M 61.955669,76.947826 A 30.390802,30.176525 0 0 1 40.466127,68.109327 30.390802,30.176525 0 0 1 31.564867,46.771301"
       sodipodi:open="true" /><path
       style="fill:#ffcc00;stroke:url(#linearGradient2124);stroke-width:0.317315;stroke-opacity:1"
       id="path1086-7-0"
       sodipodi:type="arc"
       sodipodi:cx="-39.864002"
       sodipodi:cy="-69.067741"
       sodipodi:rx="30.390802"
       sodipodi:ry="30.176525"
       sodipodi:start="1.5707963"
       sodipodi:end="3.1415927"
       sodipodi:arc-type="arc"
       d="m -39.864002,-38.891216 a 30.390802,30.176525 0 0 1 -21.489543,-8.8385 30.390802,30.176525 0 0 1 -8.90126,-21.338025"
       sodipodi:open="true"
       transform="scale(-1)" /></g><g
     inkscape:groupmode="layer"
     id="layer4"
     inkscape:label="Capa 3" /></svg>
